<mxfile host="app.diagrams.net" modified="2023-08-15T15:02:08.383Z" agent="Mozilla/5.0 (Windows NT 10.0; Win64; x64) AppleWebKit/537.36 (KHTML, like Gecko) Chrome/115.0.0.0 Safari/537.36" version="21.6.8" etag="fJszRTFb_EH54Pz0S8G-" type="github">
  <diagram name="PÃ¡gina-1" id="qOFIg2sag6Ol0mR24mPF">
    <mxGraphModel>
      <root>
        <mxCell id="0" />
        <mxCell id="1" parent="0" />
      </root>
    </mxGraphModel>
  </diagram>
</mxfile>
